<svg xmlns="http://www.w3.org/2000/svg" viewBox="0 0 500 450" width="100%" height="100%">
  <defs>
    <linearGradient id="gradLeft" x1="0%" y1="100%" x2="100%" y2="0%">
      <stop offset="0%" stop-color="#0066FF" />
      <stop offset="100%" stop-color="#00E5FF" />
    </linearGradient>
    <linearGradient id="gradTop" x1="0%" y1="0%" x2="100%" y2="100%">
      <stop offset="0%" stop-color="#00E5FF" />
      <stop offset="100%" stop-color="#00FF66" />
    </linearGradient>
    <linearGradient id="gradBottom" x1="0%" y1="0%" x2="100%" y2="0%">
      <stop offset="0%" stop-color="#00C853" />
      <stop offset="100%" stop-color="#76FF03" />
    </linearGradient>
  </defs>

  <g transform="translate(25, 20)">
    <!-- Top-Right Ribbon Piece -->
    <path d="M 210 30 L 260 30 L 330 150 L 290 220 L 255 220 L 280 175 L 245 110 L 195 110 Z" fill="url(#gradTop)" />
    <path d="M 270 30 L 335 30 L 405 150 L 325 290 L 285 290 L 350 175 Z" fill="url(#gradTop)" />

    <!-- Bottom Ribbon Piece -->
    <path d="M 235 250 L 305 250 L 370 360 L 320 360 L 275 285 Z" fill="url(#gradBottom)" />
    <path d="M 245 305 L 390 305 L 360 360 L 215 360 Z" fill="url(#gradBottom)" />

    <!-- Left Ribbon Piece -->
    <path d="M 180 150 L 115 260 L 165 360 L 205 360 L 165 290 L 210 215 Z" fill="url(#gradLeft)" />
    <path d="M 215 90 L 140 220 L 190 310 L 225 310 L 180 230 L 240 130 Z" fill="url(#gradLeft)" />
  </g>
</svg>